<?xml version="1.0" encoding="utf-8"?>
<!-- Generator: Adobe Illustrator 19.0.0, SVG Export Plug-In . SVG Version: 6.00 Build 0)  -->
<svg version="1.2" baseProfile="tiny" id="Capa_1" xmlns="http://www.w3.org/2000/svg" xmlns:xlink="http://www.w3.org/1999/xlink"
	 x="0px" y="0px" viewBox="-41 200.9 2119.5 440" xml:space="preserve">
<g>
	<g>
		<g>
			<path fill="#FFFFFF" d="M469.7,596.5l-80-120c-2.4-3.7-7.4-4.7-11.1-2.2c-3.7,2.5-4.7,7.4-2.2,11.1l71.7,107.6H-18.1l71.7-107.6
				c2.5-3.7,1.5-8.6-2.2-11.1c-3.7-2.5-8.7-1.5-11.1,2.2l-80,120c-1.6,2.4-1.8,5.6-0.4,8.2c1.4,2.6,4.1,4.2,7.1,4.2h496
				c3,0,5.7-1.6,7.1-4.2C471.4,602.1,471.3,598.9,469.7,596.5z"/>
		</g>
	</g>
	<g>
		<g>
			<path fill="#FFFFFF" d="M463,592.9H-33c-4.4,0-8,3.6-8,8v32c0,4.4,3.6,8,8,8h496c4.4,0,8-3.6,8-8v-32
				C471,596.5,467.4,592.9,463,592.9z M455,624.9H-25v-16h480V624.9z"/>
		</g>
	</g>
	<g>
		<g>
			<path fill="#FFFFFF" d="M83.2,505.7c-4-1.9-8.8-0.2-10.7,3.8l-41.9,88c-1.9,4-0.2,8.8,3.8,10.7c1.1,0.5,2.3,0.8,3.4,0.8
				c3,0,5.9-1.7,7.2-4.6l41.9-88C88.9,512.3,87.2,507.6,83.2,505.7z"/>
		</g>
	</g>
	<g>
		<g>
			<path fill="#FFFFFF" d="M399.4,597.5l-15.3-32c-1.9-4-6.6-5.7-10.7-3.8c-4,1.9-5.7,6.7-3.8,10.7l15.3,32c1.4,2.9,4.2,4.6,7.2,4.6
				c1.2,0,2.3-0.2,3.4-0.8C399.6,606.2,401.3,601.4,399.4,597.5z"/>
		</g>
	</g>
	<g>
		<g>
			<path fill="#FFFFFF" d="M368.9,533.4l-26.7-56c-1.9-4-6.6-5.7-10.7-3.8c-4,1.9-5.7,6.7-3.8,10.7l26.7,56c1.4,2.9,4.2,4.6,7.2,4.6
				c1.2,0,2.3-0.2,3.4-0.8C369.1,542.2,370.8,537.4,368.9,533.4z"/>
		</g>
	</g>
	<g>
		<g>
			<path fill="#FFFFFF" d="M79.8,504.9H25.7c-4.4,0-8,3.6-8,8s3.6,8,8,8h54.1c4.4,0,8-3.6,8-8S84.2,504.9,79.8,504.9z"/>
		</g>
	</g>
	<g>
		<g>
			<path fill="#FFFFFF" d="M441.7,560.9H377c-4.4,0-8,3.6-8,8s3.6,8,8,8h64.7c4.4,0,8-3.6,8-8S446.1,560.9,441.7,560.9z"/>
		</g>
	</g>
	<g>
		<g>
			<path fill="#FFFFFF" d="M420.3,528.9h-58.6c-4.4,0-8,3.6-8,8s3.6,8,8,8h58.6c4.4,0,8-3.6,8-8S424.8,528.9,420.3,528.9z"/>
		</g>
	</g>
	<g>
		<g>
			<path fill="#FFFFFF" d="M162.4,472.9H47c-4.4,0-8,3.6-8,8s3.6,8,8,8h115.4c4.4,0,8-3.6,8-8S166.8,472.9,162.4,472.9z"/>
		</g>
	</g>
	<g>
		<g>
			<path fill="#FFFFFF" d="M383,472.9H267.6c-4.4,0-8,3.6-8,8s3.6,8,8,8H383c4.4,0,8-3.6,8-8S387.4,472.9,383,472.9z"/>
		</g>
	</g>
	<g>
		<g>
			<path fill="#FFFFFF" d="M263,376.9h-96c-4.4,0-8,3.6-8,8c0,4.4,3.6,8,8,8h96c4.4,0,8-3.6,8-8C271,380.5,267.4,376.9,263,376.9z"
				/>
		</g>
	</g>
	<g>
		<g>
			<path fill="#FFFFFF" d="M175,280.9c-4.4,0-8,3.6-8,8v96c0,4.4,3.6,8,8,8s8-3.6,8-8v-96C183,284.5,179.4,280.9,175,280.9z"/>
		</g>
	</g>
	<g>
		<g>
			<path fill="#FFFFFF" d="M255,309.5c-4.4,0-8,3.6-8,8v67.4c0,4.4,3.6,8,8,8s8-3.6,8-8v-67.4C263,313,259.4,309.5,255,309.5z"/>
		</g>
	</g>
	<g>
		<g>
			<path fill="#FFFFFF" d="M221.5,284.2c-2.6-3.6-7.6-4.4-11.2-1.9l-56,40c-3.6,2.6-4.4,7.6-1.9,11.2c1.6,2.2,4,3.4,6.5,3.4
				c1.6,0,3.2-0.5,4.6-1.5l56-40C223.2,292.8,224.1,287.8,221.5,284.2z"/>
		</g>
	</g>
	<g>
		<g>
			<path fill="#FFFFFF" d="M275.7,322.4l-56-40c-3.6-2.6-8.6-1.7-11.2,1.9c-2.6,3.6-1.7,8.6,1.9,11.2l56,40c1.4,1,3,1.5,4.6,1.5
				c2.5,0,5-1.2,6.5-3.4C280.1,329.9,279.2,324.9,275.7,322.4z"/>
		</g>
	</g>
	<g>
		<g>
			<path fill="#FFFFFF" d="M215,352.9c-4.4,0-8,3.6-8,8v24c0,4.4,3.6,8,8,8c4.4,0,8-3.6,8-8v-24C223,356.5,219.4,352.9,215,352.9z"
				/>
		</g>
	</g>
	<g>
		<g>
			<path fill="#FB6A19" d="M133.7,513.2c-4.2-1.2-8.7,1.2-9.9,5.5l-11.5,40c-1.2,4.2,1.2,8.7,5.5,9.9c0.7,0.2,1.5,0.3,2.2,0.3
				c3.5,0,6.7-2.3,7.7-5.8l11.5-40C140.4,518.8,138,514.4,133.7,513.2z"/>
		</g>
	</g>
	<g>
		<g>
			<path fill="#FB6A19" d="M317.6,558.7l-11.5-40c-1.2-4.3-5.7-6.7-9.9-5.5c-4.3,1.2-6.7,5.6-5.5,9.9l11.5,40c1,3.5,4.2,5.8,7.7,5.8
				c0.7,0,1.5-0.1,2.2-0.3C316.4,567.4,318.8,562.9,317.6,558.7z"/>
		</g>
	</g>
	<g>
		<g>
			<path fill="#FB6A19" d="M199,512.9h-67.5c-4.4,0-8,3.6-8,8s3.6,8,8,8H199c4.4,0,8-3.6,8-8S203.4,512.9,199,512.9z"/>
		</g>
	</g>
	<g>
		<g>
			<path fill="#FB6A19" d="M298.5,512.9h-66.7c-4.4,0-8,3.6-8,8s3.6,8,8,8h66.7c4.4,0,8-3.6,8-8S302.9,512.9,298.5,512.9z"/>
		</g>
	</g>
	<g>
		<g>
			<path fill="#FB6A19" d="M309.9,552.9H120.1c-4.4,0-8,3.6-8,8s3.6,8,8,8h189.9c4.4,0,8-3.6,8-8S314.4,552.9,309.9,552.9z"/>
		</g>
	</g>
	<g>
		<g>
			<path fill="#FB6A19" d="M215,200.9c-70.6,0-128,57.4-128,128c0,105.3,117.7,209.6,122.7,214c1.5,1.3,3.4,2,5.3,2s3.8-0.7,5.3-2
				c5-4.4,122.7-108.7,122.7-214C343,258.3,285.6,200.9,215,200.9z M215,526c-22.8-21.6-112-111.3-112-197.1
				c0-61.8,50.2-112,112-112s112,50.2,112,112C327,414.8,237.8,504.5,215,526z"/>
		</g>
	</g>
</g>
<path fill="#FB6A19" d="M706.9,498.1c0,3.3-1.3,6-3.8,8c-2.5,2.1-5.4,3.1-8.7,3.1c-5,0-9-2.2-11.8-6.6l-43.9-69.5
	c-5.7-9-11.6-15.1-17.7-18.5c-6.1-3.4-14.4-5.1-24.9-5.1h-41.3v85.6c0,4.2-1.2,7.5-3.6,10c-2.4,2.5-5.6,3.8-9.5,3.8
	c-4.2,0-7.4-1.3-9.8-3.8c-2.4-2.5-3.6-5.8-3.6-10v-206c0-3.9,1.3-7.1,3.8-9.5c2.5-2.4,5.8-3.6,10-3.6h81.3
	c25.1,0,44.3,5.6,57.6,16.7c13.2,11.2,19.8,27.6,19.8,49.2c0,18.4-5.3,33.1-15.9,44.3c-10.6,11.2-25.7,17.9-45.4,20.3
	c5.5,1.8,10.4,4.6,14.8,8.5c4.4,3.9,8.7,9.4,13.1,16.4l37.4,59C706.1,493,706.9,495.5,706.9,498.1z M621,387.3
	c17.9,0,31.3-3.7,40.2-11.2c8.9-7.4,13.3-18.7,13.3-33.8c0-14.9-4.4-25.9-13.1-33.1c-8.7-7.2-22.2-10.8-40.3-10.8h-66.3v88.9H621z"
	/>
<path fill="#FB6A19" d="M775.6,499.4c-11.5-6.8-20.3-16.5-26.6-29c-6.2-12.6-9.3-27.2-9.3-43.8c0-16.6,3.1-31.2,9.3-43.8
	c6.2-12.6,15.1-22.2,26.6-29c11.5-6.8,24.8-10.2,39.9-10.2c15.1,0,28.4,3.4,40,10.2c11.6,6.8,20.5,16.5,26.7,29
	c6.2,12.6,9.3,27.2,9.3,43.8c0,16.6-3.1,31.2-9.3,43.8c-6.2,12.6-15.1,22.3-26.7,29c-11.6,6.8-24.9,10.2-40,10.2
	C800.4,509.6,787.1,506.2,775.6,499.4z M851.7,472.1c8.4-10.4,12.6-25.5,12.6-45.4c0-19.5-4.3-34.5-12.8-45.1
	c-8.5-10.6-20.6-15.9-36.1-15.9c-15.5,0-27.6,5.3-36.1,15.9c-8.5,10.6-12.8,25.6-12.8,45.1c0,19.7,4.2,34.8,12.6,45.3
	c8.4,10.5,20.5,15.7,36.2,15.7C831.2,487.6,843.3,482.4,851.7,472.1z"/>
<path fill="#FB6A19" d="M1055.9,344.6c3.3,0,6.2,1.1,8.9,3.3c2.6,2.2,3.9,4.9,3.9,8.2c0,2-0.4,3.7-1.3,5.2l-92.2,198.8
	c-1.1,2.4-2.7,4.3-4.8,5.6c-2.1,1.3-4.2,2-6.4,2c-3.3,0-6.2-1-8.7-3.1c-2.5-2.1-3.8-4.8-3.8-8c0-1.8,0.4-3.5,1.3-5.2l23-49.5
	l-64.9-140.4c-0.9-1.5-1.3-3.2-1.3-4.9c0-3.3,1.5-6.1,4.4-8.5c3-2.4,6.2-3.6,9.7-3.6c2.2,0,4.3,0.7,6.4,2c2.1,1.3,3.7,3.2,4.8,5.6
	l54.8,123l54.8-122.3C1046.8,347.3,1050.6,344.6,1055.9,344.6z"/>
<path fill="#FB6A19" d="M1220.2,406.6v89.2c0,3.9-1.1,7.1-3.4,9.5c-2.3,2.4-5.4,3.6-9.3,3.6c-3.9,0-7.1-1.2-9.5-3.6
	c-2.4-2.4-3.6-5.6-3.6-9.5v-15.7c-4.2,9.4-10.5,16.7-19,21.8c-8.5,5.1-18.4,7.7-29.5,7.7c-10.3,0-19.7-2.1-28.4-6.2
	c-8.6-4.2-15.5-9.9-20.5-17.4c-5-7.4-7.5-15.6-7.5-24.6c0-12,3.1-21.4,9.2-28c6.1-6.7,16.2-11.5,30.2-14.4c14-3,33.5-4.4,58.4-4.4
	h7.2v-10.8c0-13.1-2.7-22.7-8-28.9c-5.4-6.1-14.1-9.2-26.1-9.2c-14.9,0-30,4-45.3,12.1c-5.9,3.7-10.1,5.6-12.5,5.6
	c-2.6,0-4.8-1-6.6-3c-1.8-2-2.6-4.5-2.6-7.5c0-3.1,0.9-5.7,2.8-8c1.9-2.3,4.9-4.6,9-7.1c7.7-4.4,16.3-7.8,26.1-10.3
	c9.7-2.5,19.4-3.8,29-3.8C1200.2,343.6,1220.2,364.6,1220.2,406.6z M1181.7,475.3c8.4-8.9,12.6-20.3,12.6-34.3v-9.5h-5.9
	c-19.2,0-33.9,0.8-44,2.5c-10.1,1.6-17.2,4.4-21.5,8.2c-4.3,3.8-6.4,9.5-6.4,16.9c0,8.5,3.1,15.6,9.3,21.2c6.2,5.6,14,8.4,23.5,8.4
	C1162.5,488.6,1173.2,484.2,1181.7,475.3z"/>
<path fill="#FB6A19" d="M1272.5,505.5c-2.5-2.3-3.8-5.5-3.8-9.7V287.6c0-4.2,1.3-7.4,3.8-9.7c2.5-2.3,5.7-3.4,9.7-3.4
	c3.7,0,6.8,1.1,9.3,3.4c2.5,2.3,3.8,5.5,3.8,9.7v208.3c0,4.2-1.3,7.4-3.8,9.7c-2.5,2.3-5.6,3.4-9.3,3.4
	C1278.2,509,1275,507.8,1272.5,505.5z"/>
<path fill="#FFFFFF" d="M1633.8,497.5c0,3.3-1.3,6-3.8,8.2c-2.5,2.2-5.5,3.3-9,3.3c-5.5,0-9.3-2.6-11.5-7.9l-23.3-53.1h-123.7
	l-23.6,53.1c-2.2,5.2-6,7.9-11.5,7.9c-3.5,0-6.6-1.1-9.2-3.4c-2.6-2.3-3.9-5.1-3.9-8.4c0-1.7,0.4-3.5,1.3-5.2l93.8-208.6
	c1.3-3.1,3.3-5.4,5.9-6.9c2.6-1.5,5.5-2.3,8.5-2.3c3.3,0,6.2,0.8,8.9,2.5c2.6,1.6,4.6,3.9,5.9,6.7l93.8,208.6
	C1633.3,493.7,1633.8,495.5,1633.8,497.5z M1472.4,425.6h104l-52.1-117.7L1472.4,425.6z"/>
<path fill="#FFFFFF" d="M1760.7,355.5c0,3.5-1,6.3-3,8.4c-2,2.1-5.4,3.3-10.2,3.8l-9.8,1c-14.7,1.3-25.5,6.5-32.6,15.6
	c-7.1,9.1-10.7,19.7-10.7,32v79.7c0,4.4-1.2,7.7-3.6,9.8c-2.4,2.2-5.6,3.3-9.5,3.3c-3.9,0-7.2-1.1-9.7-3.4c-2.5-2.3-3.8-5.5-3.8-9.7
	V357.4c0-4.2,1.3-7.4,3.9-9.7c2.6-2.3,5.8-3.4,9.5-3.4c3.5,0,6.4,1.1,8.9,3.4c2.4,2.3,3.6,5.4,3.6,9.3v18.4
	c4.6-9.6,11.1-16.9,19.5-22c8.4-5,18.1-8,29-8.9l4.6-0.3C1756.1,343.6,1760.7,347.4,1760.7,355.5z"/>
<path fill="#FFFFFF" d="M1910.3,473.2c1.7,2,2.6,4.5,2.6,7.5c0,5.5-3.8,10.5-11.5,15.1c-7.9,4.6-16.2,8-24.9,10.3
	c-8.7,2.3-17.3,3.4-25.6,3.4c-24.7,0-44.2-7.3-58.5-22c-14.3-14.6-21.5-34.9-21.5-60.7c0-16.4,3.2-30.9,9.5-43.5
	c6.3-12.6,15.3-22.4,26.7-29.4c11.5-7,24.5-10.5,39.2-10.5c20.8,0,37.3,6.8,49.5,20.3c12.2,13.6,18.4,31.9,18.4,55.1
	c0,4.4-0.9,7.5-2.6,9.5c-1.8,2-4.6,3-8.5,3h-105.6c2,37.6,19.8,56.4,53.5,56.4c8.5,0,15.9-1.1,22-3.4c6.1-2.3,12.7-5.4,19.7-9.3
	c5.7-3.3,9.5-4.9,11.5-4.9C1906.4,470.3,1908.5,471.2,1910.3,473.2z M1813,377.4c-8.4,8.7-13.4,21.1-14.9,37.1h92.8
	c-0.4-16.2-4.5-28.6-12.1-37.2c-7.7-8.6-18.4-13-32.1-13C1832.6,364.3,1821.4,368.7,1813,377.4z"/>
<path fill="#FFFFFF" d="M2078.5,406.6v89.2c0,3.9-1.1,7.1-3.4,9.5c-2.3,2.4-5.4,3.6-9.3,3.6c-3.9,0-7.1-1.2-9.5-3.6
	c-2.4-2.4-3.6-5.6-3.6-9.5v-15.7c-4.2,9.4-10.5,16.7-19,21.8c-8.5,5.1-18.4,7.7-29.5,7.7c-10.3,0-19.7-2.1-28.4-6.2
	c-8.6-4.2-15.5-9.9-20.5-17.4c-5-7.4-7.5-15.6-7.5-24.6c0-12,3.1-21.4,9.2-28c6.1-6.7,16.2-11.5,30.2-14.4c14-3,33.5-4.4,58.4-4.4
	h7.2v-10.8c0-13.1-2.7-22.7-8-28.9c-5.4-6.1-14.1-9.2-26.1-9.2c-14.9,0-30,4-45.3,12.1c-5.9,3.7-10.1,5.6-12.5,5.6
	c-2.6,0-4.8-1-6.6-3c-1.8-2-2.6-4.5-2.6-7.5c0-3.1,0.9-5.7,2.8-8c1.9-2.3,4.9-4.6,9-7.1c7.7-4.4,16.3-7.8,26.1-10.3
	c9.7-2.5,19.4-3.8,29-3.8C2058.5,343.6,2078.5,364.6,2078.5,406.6z M2040,475.3c8.4-8.9,12.6-20.3,12.6-34.3v-9.5h-5.9
	c-19.2,0-33.9,0.8-44,2.5c-10.1,1.6-17.2,4.4-21.5,8.2c-4.3,3.8-6.4,9.5-6.4,16.9c0,8.5,3.1,15.6,9.3,21.2c6.2,5.6,14,8.4,23.5,8.4
	C2020.8,488.6,2031.6,484.2,2040,475.3z"/>
<g>
	<path fill="#787878" d="M1537.2,586.8c0,1.2-0.3,2.2-1,2.9c-0.7,0.7-1.9,1.2-3.6,1.3l-3.5,0.3c-5.1,0.5-9,2.3-11.5,5.5
		c-2.5,3.2-3.7,6.9-3.7,11.2v28c0,1.5-0.4,2.7-1.3,3.5c-0.8,0.8-2,1.2-3.3,1.2c-1.4,0-2.5-0.4-3.4-1.2c-0.9-0.8-1.3-1.9-1.3-3.4
		v-48.6c0-1.5,0.5-2.6,1.4-3.4c0.9-0.8,2-1.2,3.3-1.2c1.2,0,2.3,0.4,3.1,1.2c0.8,0.8,1.3,1.9,1.3,3.3v6.4c1.6-3.4,3.9-5.9,6.8-7.7
		c3-1.8,6.3-2.8,10.2-3.1l1.6-0.1C1535.6,582.7,1537.2,584,1537.2,586.8z"/>
	<path fill="#787878" d="M1589.7,628.1c0.6,0.7,0.9,1.6,0.9,2.6c0,1.9-1.3,3.7-4,5.3c-2.8,1.6-5.7,2.8-8.7,3.6
		c-3.1,0.8-6.1,1.2-9,1.2c-8.7,0-15.5-2.6-20.5-7.7c-5-5.1-7.5-12.2-7.5-21.3c0-5.8,1.1-10.8,3.3-15.3c2.2-4.4,5.4-7.8,9.4-10.3
		c4-2.5,8.6-3.7,13.8-3.7c7.3,0,13.1,2.4,17.4,7.1c4.3,4.8,6.4,11.2,6.4,19.3c0,1.5-0.3,2.6-0.9,3.3c-0.6,0.7-1.6,1-3,1h-37.1
		c0.7,13.2,6.9,19.8,18.8,19.8c3,0,5.6-0.4,7.7-1.2c2.1-0.8,4.4-1.9,6.9-3.3c2-1.2,3.3-1.7,4-1.7
		C1588.4,627.1,1589.1,627.4,1589.7,628.1z M1555.6,594.5c-3,3.1-4.7,7.4-5.2,13h32.6c-0.2-5.7-1.6-10-4.3-13.1
		c-2.7-3-6.4-4.5-11.3-4.5C1562.5,589.9,1558.5,591.4,1555.6,594.5z"/>
	<path fill="#787878" d="M1648.8,604.7v31.3c0,1.4-0.4,2.5-1.2,3.3c-0.8,0.8-1.9,1.3-3.3,1.3s-2.5-0.4-3.3-1.3
		c-0.8-0.8-1.3-2-1.3-3.3v-5.5c-1.5,3.3-3.7,5.9-6.7,7.7c-3,1.8-6.4,2.7-10.4,2.7c-3.6,0-6.9-0.7-10-2.2c-3-1.5-5.4-3.5-7.2-6.1
		c-1.8-2.6-2.6-5.5-2.6-8.6c0-4.2,1.1-7.5,3.2-9.8c2.1-2.3,5.7-4,10.6-5.1c4.9-1,11.7-1.6,20.5-1.6h2.5v-3.8c0-4.6-0.9-8-2.8-10.1
		c-1.9-2.1-4.9-3.2-9.2-3.2c-5.2,0-10.5,1.4-15.9,4.3c-2.1,1.3-3.5,2-4.4,2c-0.9,0-1.7-0.3-2.3-1c-0.6-0.7-0.9-1.6-0.9-2.6
		c0-1.1,0.3-2,1-2.8c0.7-0.8,1.7-1.6,3.2-2.5c2.7-1.5,5.7-2.7,9.1-3.6c3.4-0.9,6.8-1.3,10.2-1.3
		C1641.7,582.7,1648.8,590,1648.8,604.7z M1635.2,628.9c3-3.1,4.4-7.1,4.4-12v-3.3h-2.1c-6.8,0-11.9,0.3-15.4,0.9
		c-3.5,0.6-6,1.5-7.5,2.9c-1.5,1.3-2.2,3.3-2.2,5.9c0,3,1.1,5.5,3.3,7.4c2.2,2,4.9,2.9,8.2,2.9
		C1628.5,633.5,1632.3,632,1635.2,628.9z"/>
	<path fill="#787878" d="M1667.1,639.5c-0.9-0.8-1.3-1.9-1.3-3.4V563c0-1.5,0.4-2.6,1.3-3.4c0.9-0.8,2-1.2,3.4-1.2
		c1.3,0,2.4,0.4,3.3,1.2c0.9,0.8,1.3,1.9,1.3,3.4v73.1c0,1.5-0.4,2.6-1.3,3.4c-0.9,0.8-2,1.2-3.3,1.2
		C1669.1,640.7,1668,640.3,1667.1,639.5z"/>
	<path fill="#787878" d="M1767.8,628.1c0.6,0.7,0.9,1.6,0.9,2.6c0,1.9-1.3,3.7-4,5.3c-2.8,1.6-5.7,2.8-8.7,3.6
		c-3.1,0.8-6.1,1.2-9,1.2c-8.7,0-15.5-2.6-20.5-7.7c-5-5.1-7.5-12.2-7.5-21.3c0-5.8,1.1-10.8,3.3-15.3c2.2-4.4,5.4-7.8,9.4-10.3
		c4-2.5,8.6-3.7,13.8-3.7c7.3,0,13.1,2.4,17.4,7.1c4.3,4.8,6.4,11.2,6.4,19.3c0,1.5-0.3,2.6-0.9,3.3c-0.6,0.7-1.6,1-3,1h-37.1
		c0.7,13.2,6.9,19.8,18.8,19.8c3,0,5.6-0.4,7.7-1.2c2.1-0.8,4.4-1.9,6.9-3.3c2-1.2,3.3-1.7,4-1.7
		C1766.4,627.1,1767.2,627.4,1767.8,628.1z M1733.6,594.5c-3,3.1-4.7,7.4-5.2,13h32.6c-0.2-5.7-1.6-10-4.3-13.1
		c-2.7-3-6.4-4.5-11.3-4.5C1740.5,589.9,1736.6,591.4,1733.6,594.5z"/>
	<path fill="#787878" d="M1791.6,639.6c-3.2-0.8-6-2-8.5-3.6c-1.4-0.9-2.4-1.8-2.9-2.6c-0.6-0.8-0.9-1.8-0.9-2.9
		c0-1,0.3-1.8,0.9-2.5c0.6-0.7,1.3-1,2.2-1c0.9,0,2.3,0.6,4,1.7c2.3,1.4,4.6,2.5,6.8,3.3c2.3,0.8,5.1,1.2,8.5,1.2
		c4.1,0,7.4-0.7,9.7-2.2c2.3-1.5,3.5-3.6,3.5-6.3c0-1.7-0.4-3-1.3-4.1c-0.8-1-2.3-2-4.4-2.8c-2.1-0.8-5.1-1.6-9.1-2.5
		c-6.8-1.5-11.6-3.4-14.5-5.9c-2.9-2.5-4.4-5.8-4.4-10c0-3.3,0.9-6.2,2.8-8.7c1.8-2.5,4.4-4.5,7.7-6c3.3-1.5,7-2.2,11.1-2.2
		c3,0,5.9,0.4,8.7,1.2c2.8,0.8,5.3,1.9,7.4,3.4c2.6,1.8,3.9,3.8,3.9,5.8c0,1-0.3,1.8-0.9,2.5c-0.6,0.7-1.3,1-2.2,1
		c-0.9,0-2.3-0.7-4.1-2c-2.1-1.4-4.2-2.5-6.1-3.2c-1.9-0.8-4.3-1.2-7.1-1.2c-3.6,0-6.5,0.8-8.7,2.4c-2.2,1.6-3.3,3.8-3.3,6.4
		c0,1.7,0.4,3,1.2,4.1c0.8,1,2.1,2,4,2.8c1.9,0.8,4.6,1.6,8.1,2.4c5.2,1.2,9.3,2.4,12.1,3.8c2.9,1.4,4.9,3.1,6.2,5.1
		c1.2,2,1.8,4.5,1.8,7.6c0,4.8-2,8.7-6.1,11.7c-4.1,3-9.4,4.4-16.1,4.4C1798.2,640.9,1794.8,640.5,1791.6,639.6z"/>
	<path fill="#787878" d="M1867.4,637c0,1.3-0.5,2.3-1.4,2.9c-1,0.7-2.4,0.9-4.3,0.7l-3.1-0.2c-6.1-0.5-10.7-2.3-13.6-5.5
		c-2.9-3.2-4.4-8.1-4.4-14.6v-28.9h-7.7c-1.3,0-2.3-0.3-3.1-1c-0.7-0.7-1.1-1.5-1.1-2.6c0-1.2,0.4-2.1,1.1-2.8c0.7-0.7,1.7-1,3.1-1
		h7.7v-13c0-1.5,0.4-2.6,1.3-3.4c0.8-0.8,2-1.2,3.5-1.2c1.4,0,2.5,0.4,3.3,1.2c0.8,0.8,1.3,1.9,1.3,3.4v13h12.8c1.2,0,2.2,0.3,2.9,1
		c0.7,0.7,1.1,1.6,1.1,2.8c0,1.1-0.4,1.9-1.1,2.6c-0.7,0.7-1.7,1-2.9,1h-12.8v29.3c0,4.2,0.9,7.3,2.6,9.1c1.7,1.9,4.3,2.9,7.8,3.2
		l3.1,0.2C1866.1,633.5,1867.4,634.8,1867.4,637z"/>
	<path fill="#787878" d="M1920.6,604.7v31.3c0,1.4-0.4,2.5-1.2,3.3c-0.8,0.8-1.9,1.3-3.3,1.3s-2.5-0.4-3.3-1.3
		c-0.8-0.8-1.3-2-1.3-3.3v-5.5c-1.5,3.3-3.7,5.9-6.7,7.7c-3,1.8-6.4,2.7-10.4,2.7c-3.6,0-6.9-0.7-10-2.2c-3-1.5-5.4-3.5-7.2-6.1
		c-1.8-2.6-2.6-5.5-2.6-8.6c0-4.2,1.1-7.5,3.2-9.8c2.1-2.3,5.7-4,10.6-5.1c4.9-1,11.7-1.6,20.5-1.6h2.5v-3.8c0-4.6-0.9-8-2.8-10.1
		c-1.9-2.1-4.9-3.2-9.2-3.2c-5.2,0-10.5,1.4-15.9,4.3c-2.1,1.3-3.5,2-4.4,2c-0.9,0-1.7-0.3-2.3-1c-0.6-0.7-0.9-1.6-0.9-2.6
		c0-1.1,0.3-2,1-2.8c0.7-0.8,1.7-1.6,3.2-2.5c2.7-1.5,5.7-2.7,9.1-3.6c3.4-0.9,6.8-1.3,10.2-1.3
		C1913.6,582.7,1920.6,590,1920.6,604.7z M1907.1,628.9c3-3.1,4.4-7.1,4.4-12v-3.3h-2.1c-6.8,0-11.9,0.3-15.4,0.9
		c-3.5,0.6-6,1.5-7.5,2.9c-1.5,1.3-2.2,3.3-2.2,5.9c0,3,1.1,5.5,3.3,7.4c2.2,2,4.9,2.9,8.2,2.9
		C1900.4,633.5,1904.1,632,1907.1,628.9z"/>
	<path fill="#787878" d="M1967.6,637c0,1.3-0.5,2.3-1.4,2.9c-1,0.7-2.4,0.9-4.3,0.7l-3.1-0.2c-6.1-0.5-10.7-2.3-13.6-5.5
		c-2.9-3.2-4.4-8.1-4.4-14.6v-28.9h-7.7c-1.3,0-2.3-0.3-3.1-1c-0.7-0.7-1.1-1.5-1.1-2.6c0-1.2,0.4-2.1,1.1-2.8c0.7-0.7,1.7-1,3.1-1
		h7.7v-13c0-1.5,0.4-2.6,1.3-3.4c0.8-0.8,2-1.2,3.5-1.2c1.4,0,2.5,0.4,3.3,1.2c0.8,0.8,1.3,1.9,1.3,3.4v13h12.8c1.2,0,2.2,0.3,2.9,1
		c0.7,0.7,1.1,1.6,1.1,2.8c0,1.1-0.4,1.9-1.1,2.6c-0.7,0.7-1.7,1-2.9,1h-12.8v29.3c0,4.2,0.9,7.3,2.6,9.1c1.7,1.9,4.3,2.9,7.8,3.2
		l3.1,0.2C1966.2,633.5,1967.6,634.8,1967.6,637z"/>
	<path fill="#787878" d="M2022.4,628.1c0.6,0.7,0.9,1.6,0.9,2.6c0,1.9-1.3,3.7-4,5.3c-2.8,1.6-5.7,2.8-8.7,3.6
		c-3.1,0.8-6.1,1.2-9,1.2c-8.7,0-15.5-2.6-20.5-7.7c-5-5.1-7.5-12.2-7.5-21.3c0-5.8,1.1-10.8,3.3-15.3c2.2-4.4,5.4-7.8,9.4-10.3
		c4-2.5,8.6-3.7,13.8-3.7c7.3,0,13.1,2.4,17.4,7.1c4.3,4.8,6.4,11.2,6.4,19.3c0,1.5-0.3,2.6-0.9,3.3c-0.6,0.7-1.6,1-3,1h-37.1
		c0.7,13.2,6.9,19.8,18.8,19.8c3,0,5.6-0.4,7.7-1.2c2.1-0.8,4.4-1.9,6.9-3.3c2-1.2,3.3-1.7,4-1.7
		C2021,627.1,2021.7,627.4,2022.4,628.1z M1988.2,594.5c-3,3.1-4.7,7.4-5.2,13h32.6c-0.2-5.7-1.6-10-4.3-13.1
		c-2.7-3-6.4-4.5-11.3-4.5C1995.1,589.9,1991.2,591.4,1988.2,594.5z"/>
	<path fill="#787878" d="M2046.2,639.6c-3.2-0.8-6-2-8.5-3.6c-1.4-0.9-2.4-1.8-2.9-2.6c-0.6-0.8-0.9-1.8-0.9-2.9
		c0-1,0.3-1.8,0.9-2.5c0.6-0.7,1.3-1,2.2-1s2.3,0.6,4,1.7c2.3,1.4,4.6,2.5,6.8,3.3c2.3,0.8,5.1,1.2,8.5,1.2c4.1,0,7.4-0.7,9.7-2.2
		c2.3-1.5,3.5-3.6,3.5-6.3c0-1.7-0.4-3-1.3-4.1c-0.8-1-2.3-2-4.4-2.8c-2.1-0.8-5.1-1.6-9.1-2.5c-6.8-1.5-11.6-3.4-14.5-5.9
		c-2.9-2.5-4.4-5.8-4.4-10c0-3.3,0.9-6.2,2.8-8.7c1.8-2.5,4.4-4.5,7.7-6c3.3-1.5,7-2.2,11.1-2.2c3,0,5.9,0.4,8.7,1.2
		c2.8,0.8,5.3,1.9,7.4,3.4c2.6,1.8,3.9,3.8,3.9,5.8c0,1-0.3,1.8-0.9,2.5c-0.6,0.7-1.3,1-2.2,1c-0.9,0-2.3-0.7-4.1-2
		c-2.1-1.4-4.2-2.5-6.1-3.2c-1.9-0.8-4.3-1.2-7.1-1.2c-3.6,0-6.5,0.8-8.7,2.4c-2.2,1.6-3.3,3.8-3.3,6.4c0,1.7,0.4,3,1.2,4.1
		c0.8,1,2.1,2,4,2.8c1.9,0.8,4.6,1.6,8.1,2.4c5.2,1.2,9.3,2.4,12.1,3.8c2.9,1.4,4.9,3.1,6.2,5.1c1.2,2,1.8,4.5,1.8,7.6
		c0,4.8-2,8.7-6.1,11.7c-4.1,3-9.4,4.4-16.1,4.4C2052.8,640.9,2049.4,640.5,2046.2,639.6z"/>
</g>
</svg>
